<svg xmlns="http://www.w3.org/2000/svg" xmlns:xlink="http://www.w3.org/1999/xlink" width="259.789" height="134.949" viewBox="0 0 259.789 134.949">
  <defs>
    <clipPath id="clip-path">
      <path id="Path_118" data-name="Path 118" d="M10.451-63.195q1.721-.316,4.617,1.5a6.557,6.557,0,0,1,3.338,4.227Q19.62-50.858,16.294-30.6,15.179-23.5,15.66-20.88q.063.344.214.388a20.352,20.352,0,0,0,2.56-.4,42.75,42.75,0,0,0,6.511-1.943q4.1-1.5,6.626-2.676a22.157,22.157,0,0,1,3.006-1.264q1.721-.316,2.126,1.887.8,4.337-5.292,8.2a41.262,41.262,0,0,1-14.763,5.451,9.152,9.152,0,0,1-6.623-1.381,7.506,7.506,0,0,1-3.806-5.03q-.556-3.029,1.5-20.523T8.872-60.556Q8.454-62.828,10.451-63.195Zm32.866-9.117q1.66-.261,4.766,2.367t3.543,5.394q.436,2.766.722,9.984T52.4-42.988q-1.8,25.936-4.078,26.295-1.521.24-4.155-1.861t-2.884-3.691q-.022-.138.734-7.485t.909-18.745a127.15,127.15,0,0,0-1.437-21.493Q41.173-71.974,43.317-72.312ZM86.9-45.012q.427,3.4-3.853,6.691a18.664,18.664,0,0,1-9.141,3.9,38.145,38.145,0,0,1-8.075.307,11.891,11.891,0,0,0-.155,3.829,4.443,4.443,0,0,0,.96,2.6q.725.72,3.226.407a35.927,35.927,0,0,0,8.8-2.091q3.594-1.438,3.733-1.456,2.848-.357,3.083,1.518.34,2.709-3.836,5.7A21.525,21.525,0,0,1,71.6-19.884a12.556,12.556,0,0,1-9.873-2.5A12.243,12.243,0,0,1,57.1-30.659a22.4,22.4,0,0,1,1.633-10.893,31.175,31.175,0,0,1,6.244-10.13q3.98-4.273,8.39-4.826t8.705,3.318Q86.362-49.318,86.9-45.012Zm-8.2-.1q-.087-.695-1.711-1.831a4.277,4.277,0,0,0-2.909-.976q-1.285.161-3.069,2.254a22.458,22.458,0,0,0-3.224,5.237,17.721,17.721,0,0,0,1.815-.157Q79.123-41.78,78.705-45.114Zm13.969-1.528L91.686-54.5q-.282-3.91,2.162-4.086a4.511,4.511,0,0,1,2.833.848,6.415,6.415,0,0,1,2.3,3.133,21.1,21.1,0,0,1,4.957-3.761,12.323,12.323,0,0,1,4.9-1.651q5.1-.367,5.273,2.076a3.056,3.056,0,0,1-.321,1.883q-.411.626-.635.923a6.134,6.134,0,0,1-.785.793q-.561.5-.825.726-1.53,1.163-2.2,1.632a21.463,21.463,0,0,0-5.036,5.1,18.687,18.687,0,0,0-2.8,7.887,70.13,70.13,0,0,1-2.8,12.238q-1.5,4.073-3.7,4.232a3.505,3.505,0,0,1-3.432-1.858,8.656,8.656,0,0,1-1.367-3.867,18.053,18.053,0,0,1,.961-5.649A42.727,42.727,0,0,0,92.6-40.425,32.65,32.65,0,0,0,92.674-46.642Zm52.953.5q-.057,3.43-4.757,6.082a18.664,18.664,0,0,1-9.6,2.57,38.145,38.145,0,0,1-8.037-.834,11.892,11.892,0,0,0-.693,3.769,4.443,4.443,0,0,0,.585,2.705q.617.815,3.136.857a35.927,35.927,0,0,0,9.01-.83q3.761-.917,3.9-.915,2.87.048,2.838,1.938-.046,2.73-4.6,5.1a21.525,21.525,0,0,1-10.469,2.276,12.556,12.556,0,0,1-9.422-3.868,12.244,12.244,0,0,1-3.423-8.843,22.4,22.4,0,0,1,3.151-10.554,31.175,31.175,0,0,1,7.609-9.149q4.542-3.67,8.986-3.6t8.151,4.511Q145.7-50.479,145.626-46.14Zm-8.1-1.255q.012-.7-1.436-2.054a4.277,4.277,0,0,0-2.742-1.376q-1.295-.022-3.355,1.8a22.459,22.459,0,0,0-3.929,4.73,17.719,17.719,0,0,0,1.818.1Q137.47-44.035,137.526-47.395Zm37.808-8.958a8.221,8.221,0,0,1,6.043,3.886,10.582,10.582,0,0,1,2.046,7.209,43.565,43.565,0,0,1-3.172,12.167,39.268,39.268,0,0,1-5.187,9.5q-2.617,3.252-4.95,3.015t-2-3.51q.255-2.507,3.325-9.864a39.1,39.1,0,0,0,2.654-8.807q.276-2.716-.42-2.787a2.511,2.511,0,0,0-1.868.725q-.963.817-1.59,1.457t-1.469,1.645q-.841,1.005-1.452,1.823t-1.55,2.094q-.939,1.277-1.515,2.1t-1.484,2.136q-7.708,11.459-11.4,11.084-1.462-.149-3.433-2.917t-1.85-3.952a12.391,12.391,0,0,1,1.346-3.205q1.268-2.439,1.859-3.751a25.068,25.068,0,0,0,1.06-2.812q.469-1.5.859-3.255t.593-2.719q.2-.964.555-3.039,1.547-8.99,2.1-9.919t1.109-.872a7.586,7.586,0,0,1,4.861,2.71q2.214,2.441,2.03,4.252Q162-47.647,158.946-39.8a135.1,135.1,0,0,1,9.573-12.149Q172.758-56.615,175.335-56.353ZM215-34.55a3.009,3.009,0,0,1,.946,2.194,17.652,17.652,0,0,1-1.389,3.614,45.343,45.343,0,0,0-1.764,4.231q-.51,1.516-.817,2.391t-.454,1.383q-.147.509-.434,1.245t-.458,1.17q-.171.435-.432,1a3.416,3.416,0,0,1-.515.843q-.254.281-.583.585a1.638,1.638,0,0,1-1.467.347q-.969-.145-2.1-2.3a13.518,13.518,0,0,1-1.408-5.023q-7.5,5.674-11.931,5.013-2.977-.445-5.948-4.25T183.763-29.2q.491-3.289,4.378-8.936a42.9,42.9,0,0,1,9.82-10.07q5.933-4.422,10.987-3.667,2.908.434,6.209,4.4t2.882,6.765A13.7,13.7,0,0,1,215-34.55Zm-21.78,7.93q2.769.414,7.937-2.672a16.032,16.032,0,0,0,7.133-8.666q.193-.82,1.322-.793.382-3.977-.726-4.143-2.769-.414-6.734,2.675a35.553,35.553,0,0,0-6.755,6.847q-2.791,3.759-3.08,5.7a1.083,1.083,0,0,0,.065.753A1.385,1.385,0,0,0,193.216-26.621Zm51.037-19.234q2.619.466,4.616,4.022t1.556,6.036q-.295,1.654-1.742,1.4a7.141,7.141,0,0,1-2.3-1.084A8.461,8.461,0,0,0,243.3-36.71a16.122,16.122,0,0,0-4.952.256q-3.332.544-3.651,2.336-.123.689,1.5,2.33t3.587,3.412a15.706,15.706,0,0,1,3.385,4.549,8.722,8.722,0,0,1,.916,5.638q-.509,2.86-5.194,5.012a16.993,16.993,0,0,1-10.3,1.152,17.776,17.776,0,0,1-9.16-4.262q-3.543-3.262-3.064-5.949t2.684-2.295a4.658,4.658,0,0,1,2.014,1.07,17.141,17.141,0,0,0,8.224,3.527q5.134.914,5.38-.464t-1.418-3.417a35.855,35.855,0,0,0-3.714-3.9,21.735,21.735,0,0,1-3.641-4.31,6.238,6.238,0,0,1-1.234-4.45q.663-3.721,8.2-6.895T244.253-45.855Z" fill="none" clip-rule="evenodd"/>
    </clipPath>
    <clipPath id="clip-path-3">
      <path id="Path_123" data-name="Path 123" d="M43.425-101.545a6.487,6.487,0,0,1,.124-2.685,1.424,1.424,0,0,1,1.318-.9q1.01-.1,2.873,1.688a45.9,45.9,0,0,0,4.178,3.53,6.345,6.345,0,0,0,4.406,1.538q1.6-.157,2.769-4.772t2.293-11.794q1.127-7.179,1.383-9.6a53.992,53.992,0,0,1,.948-6.845q-1.84.6-6.136,1.62a54.353,54.353,0,0,1-5.759,1.161,3.219,3.219,0,0,1-2.457-.674,2.962,2.962,0,0,1-1.117-2.071q-.245-2.508,4.887-5.05a51.961,51.961,0,0,1,10.383-3.864,59.518,59.518,0,0,1,7.272-1.52q3.9-.382,4.147,2.126.1,1.045-1.656,8.954t-2.084,10.332q-2.2,16.322-3.626,21.174-2.211,7.6-6.693,9.235a9.205,9.205,0,0,1-2.2.5q-4.946.484-9.907-3.849T43.425-101.545ZM105.918-112.8a3.009,3.009,0,0,1,1.382,1.949,17.654,17.654,0,0,1-.608,3.824,45.323,45.323,0,0,0-.847,4.5q-.183,1.589-.3,2.508t-.157,1.447q-.038.528-.166,1.308t-.2,1.24q-.077.461-.215,1.065a3.422,3.422,0,0,1-.329.932q-.19.327-.449.694a1.638,1.638,0,0,1-1.363.644q-.978.06-2.53-1.809a13.515,13.515,0,0,1-2.421-4.621q-6.158,7.109-10.63,7.382-3,.184-6.7-2.922t-3.9-6.424q-.2-3.319,2.426-9.651a42.9,42.9,0,0,1,7.514-11.89q4.885-5.558,9.986-5.87,2.935-.179,6.987,3.01t4.225,6.019A13.7,13.7,0,0,1,105.918-112.8ZM86.26-100.522q2.795-.171,7.208-4.262a16.032,16.032,0,0,0,5.177-9.959q.019-.843,1.128-1.051-.453-3.97-1.571-3.9-2.795.171-6.031,4.015a35.554,35.554,0,0,0-5.186,8.1q-1.949,4.257-1.83,6.213a1.082,1.082,0,0,0,.22.723A1.384,1.384,0,0,0,86.26-100.522Zm49.267-28.7a5.805,5.805,0,0,1,3.537,1.289,3.531,3.531,0,0,1,1.72,2.692q0,2.52-4.144,11.7a125.858,125.858,0,0,1-7.673,14.784q-3.525,5.606-5.485,5.61a6.225,6.225,0,0,1-3.048-1.394,6.8,6.8,0,0,1-2.56-2.8q-1.687-4.057-4.087-15.008t-2.405-13.891q-.005-2.94,1.955-2.944a8.22,8.22,0,0,1,4.9,1.881,11.724,11.724,0,0,1,4.705,8.6q.215,2.52.361,6.194a44.953,44.953,0,0,0,.641,6.334,100.106,100.106,0,0,0,4.113-9.562q2.439-6.339,4.217-9.913T135.527-129.223Zm11.935-8.32a5.852,5.852,0,0,1,1.81-3.668,4.479,4.479,0,0,1,3.3-1.78q1.573.07,3.573,3.943t1.924,5.586a3.186,3.186,0,0,1-1.236,2.573,3.633,3.633,0,0,1-2.348.806q-2.028-.09-4.567-2.866T147.463-137.543Zm.66,8.788q2.448.109,4.246,2.992a9.57,9.57,0,0,1,1.684,5.47q-.059,1.329-2.837,9.438t-5.483,15.346a3.379,3.379,0,0,1-3.548,2.575,3.694,3.694,0,0,1-2.641-1.274,4.071,4.071,0,0,1-1.02-3.058,57.125,57.125,0,0,1,2.194-9.151q2.112-7.3,3.288-12.466a60.717,60.717,0,0,1,2.087-7.545Q147-128.8,148.123-128.755Zm39.684,15.925q-.261,3.42-5.11,5.788a18.665,18.665,0,0,1-9.735,2,38.15,38.15,0,0,1-7.973-1.311,11.891,11.891,0,0,0-.916,3.721A4.443,4.443,0,0,0,164.5-99.9q.567.851,3.08,1.042a35.926,35.926,0,0,0,9.044-.293q3.809-.692,3.948-.682,2.862.218,2.718,2.1-.208,2.722-4.9,4.821A21.525,21.525,0,0,1,167.8-91.26a12.556,12.556,0,0,1-9.175-4.421,12.244,12.244,0,0,1-2.891-9.031,22.4,22.4,0,0,1,3.773-10.348,31.175,31.175,0,0,1,8.139-8.681q4.752-3.393,9.184-3.055t7.868,4.988Q188.137-117.157,187.807-112.83Zm-8.011-1.735q.053-.7-1.311-2.136a4.277,4.277,0,0,0-2.656-1.536q-1.291-.1-3.456,1.6a22.457,22.457,0,0,0-4.2,4.488,17.706,17.706,0,0,0,1.809.208Q179.54-111.214,179.8-114.565Zm13.3.995.375-7.912q.393-3.9,2.831-3.655a4.51,4.51,0,0,1,2.646,1.322,6.415,6.415,0,0,1,1.725,3.48,21.094,21.094,0,0,1,5.529-2.855,12.325,12.325,0,0,1,5.11-.787q5.084.512,4.839,2.95a3.056,3.056,0,0,1-.639,1.8q-.512.546-.784.8a6.13,6.13,0,0,1-.91.647q-.638.393-.937.574-1.707.883-2.446,1.231a21.463,21.463,0,0,0-5.837,4.161,18.687,18.687,0,0,0-4.112,7.289,70.135,70.135,0,0,1-4.86,11.576q-2.173,3.756-4.367,3.535a3.505,3.505,0,0,1-3.063-2.419,8.657,8.657,0,0,1-.683-4.044,18.052,18.052,0,0,1,1.916-5.4,42.722,42.722,0,0,0,2.523-6.183A32.649,32.649,0,0,0,193.093-113.57Z" fill="none" clip-rule="evenodd"/>
    </clipPath>
  </defs>
  <g id="Name" transform="matrix(0.998, -0.07, 0.07, 0.998, 4.797, 140.566)">
    <g id="Group_76" data-name="Group 76">
      <g id="Group_68" data-name="Group 68" clip-path="url(#clip-path)">
        <path id="Path_117" data-name="Path 117" d="M1.1-77.335H255.5V-6.093H1.1Z"/>
      </g>
      <g id="Group_69" data-name="Group 69" transform="translate(6.099 -72.335)">
        <path id="Path_119" data-name="Path 119" d="M4.352,9.141q1.721-.316,4.617,1.5a6.557,6.557,0,0,1,3.338,4.227q1.214,6.609-2.112,26.863-1.114,7.108-.634,9.724.063.344.214.388a20.351,20.351,0,0,0,2.56-.4A42.751,42.751,0,0,0,18.845,49.5q4.1-1.5,6.626-2.676a22.155,22.155,0,0,1,3.006-1.264q1.721-.316,2.126,1.887.8,4.337-5.292,8.2A41.261,41.261,0,0,1,10.548,61.1a9.152,9.152,0,0,1-6.623-1.381,7.506,7.506,0,0,1-3.806-5.03q-.556-3.029,1.5-20.523T2.772,11.779Q2.355,9.507,4.352,9.141ZM37.217.024q1.66-.261,4.766,2.367t3.543,5.394q.436,2.766.722,9.984T46.3,29.347q-1.8,25.936-4.078,26.295-1.521.24-4.155-1.861T35.183,50.09q-.022-.138.734-7.485t.909-18.745A127.151,127.151,0,0,0,35.39,2.367Q35.074.361,37.217.024ZM80.8,27.323q.427,3.4-3.853,6.691a18.664,18.664,0,0,1-9.141,3.9,38.145,38.145,0,0,1-8.075.307,11.891,11.891,0,0,0-.155,3.829,4.443,4.443,0,0,0,.96,2.6q.725.72,3.226.407a35.927,35.927,0,0,0,8.8-2.091Q76.162,41.52,76.3,41.5q2.848-.357,3.083,1.518.34,2.709-3.836,5.7A21.525,21.525,0,0,1,65.5,52.451a12.556,12.556,0,0,1-9.873-2.5A12.243,12.243,0,0,1,51,41.676a22.4,22.4,0,0,1,1.633-10.893,31.175,31.175,0,0,1,6.244-10.13q3.98-4.273,8.39-4.826t8.705,3.318Q80.263,23.017,80.8,27.323Zm-8.2-.1q-.087-.695-1.711-1.831a4.277,4.277,0,0,0-2.909-.976q-1.285.161-3.069,2.254a22.458,22.458,0,0,0-3.224,5.237,17.719,17.719,0,0,0,1.815-.157Q73.024,30.556,72.606,27.222Zm13.969-1.528-.988-7.859q-.282-3.91,2.162-4.086a4.511,4.511,0,0,1,2.833.849,6.415,6.415,0,0,1,2.3,3.133,21.094,21.094,0,0,1,4.957-3.761,12.323,12.323,0,0,1,4.9-1.651q5.1-.367,5.273,2.076a3.056,3.056,0,0,1-.32,1.883q-.411.626-.635.923a6.141,6.141,0,0,1-.785.793q-.561.5-.825.726-1.53,1.163-2.2,1.632a21.463,21.463,0,0,0-5.036,5.1,18.688,18.688,0,0,0-2.8,7.887,70.132,70.132,0,0,1-2.8,12.238q-1.5,4.073-3.7,4.232a3.505,3.505,0,0,1-3.432-1.858,8.657,8.657,0,0,1-1.367-3.867,18.053,18.053,0,0,1,.961-5.649A42.727,42.727,0,0,0,86.5,31.91,32.65,32.65,0,0,0,86.575,25.693Zm52.953.5q-.057,3.43-4.757,6.082a18.665,18.665,0,0,1-9.6,2.57,38.145,38.145,0,0,1-8.037-.834,11.89,11.89,0,0,0-.693,3.769,4.443,4.443,0,0,0,.585,2.705q.616.815,3.136.857a35.927,35.927,0,0,0,9.01-.83q3.761-.917,3.9-.915,2.87.048,2.838,1.938-.045,2.73-4.6,5.1a21.525,21.525,0,0,1-10.469,2.276,12.556,12.556,0,0,1-9.422-3.868A12.243,12.243,0,0,1,108,36.207a22.4,22.4,0,0,1,3.151-10.554,31.175,31.175,0,0,1,7.608-9.149q4.542-3.67,8.986-3.6t8.151,4.511Q139.6,21.856,139.527,26.2Zm-8.1-1.255q.012-.7-1.436-2.054a4.277,4.277,0,0,0-2.743-1.376q-1.295-.022-3.355,1.8a22.456,22.456,0,0,0-3.929,4.73,17.723,17.723,0,0,0,1.819.1Q131.371,28.3,131.427,24.94Zm37.808-8.958a8.221,8.221,0,0,1,6.043,3.886,10.583,10.583,0,0,1,2.046,7.209,43.565,43.565,0,0,1-3.172,12.167,39.272,39.272,0,0,1-5.187,9.5q-2.617,3.252-4.95,3.015t-2-3.51q.255-2.507,3.324-9.864a39.083,39.083,0,0,0,2.654-8.807q.276-2.716-.42-2.787a2.511,2.511,0,0,0-1.868.725q-.963.817-1.59,1.457t-1.469,1.645q-.841,1.005-1.452,1.823t-1.55,2.094q-.939,1.277-1.515,2.1t-1.484,2.136q-7.709,11.459-11.4,11.084-1.462-.149-3.433-2.917t-1.85-3.952a12.39,12.39,0,0,1,1.346-3.205q1.268-2.439,1.859-3.751a25.086,25.086,0,0,0,1.06-2.812q.469-1.5.859-3.255t.593-2.719q.2-.964.555-3.039,1.547-8.99,2.1-9.919t1.109-.872a7.585,7.585,0,0,1,4.861,2.71q2.215,2.441,2.031,4.252-.439,4.318-3.489,12.17A135.1,135.1,0,0,1,162.42,20.39Q166.659,15.72,169.235,15.982Zm39.661,21.8a3.009,3.009,0,0,1,.946,2.194,17.658,17.658,0,0,1-1.389,3.614,45.312,45.312,0,0,0-1.764,4.231q-.51,1.516-.817,2.391t-.454,1.383q-.147.509-.434,1.245t-.458,1.17q-.171.435-.432,1a3.42,3.42,0,0,1-.515.843q-.254.281-.583.585a1.638,1.638,0,0,1-1.467.347q-.969-.145-2.1-2.3a13.514,13.514,0,0,1-1.408-5.023q-7.5,5.674-11.931,5.013-2.977-.445-5.947-4.25t-2.479-7.094q.491-3.289,4.378-8.936a42.894,42.894,0,0,1,9.82-10.07q5.933-4.422,10.987-3.667,2.908.434,6.209,4.4t2.882,6.765A13.7,13.7,0,0,1,208.9,37.785Zm-21.78,7.93q2.769.414,7.937-2.672a16.032,16.032,0,0,0,7.133-8.666q.193-.82,1.322-.793.382-3.977-.726-4.143-2.769-.414-6.734,2.675a35.557,35.557,0,0,0-6.755,6.847q-2.791,3.759-3.08,5.7a1.082,1.082,0,0,0,.064.753A1.385,1.385,0,0,0,187.116,45.715Zm51.037-19.234q2.619.466,4.616,4.022t1.556,6.036q-.295,1.654-1.742,1.4a7.142,7.142,0,0,1-2.3-1.084,8.461,8.461,0,0,0-3.088-1.225,16.121,16.121,0,0,0-4.952.256q-3.332.544-3.651,2.336-.123.689,1.5,2.33t3.587,3.412a15.7,15.7,0,0,1,3.385,4.549,8.722,8.722,0,0,1,.916,5.638q-.509,2.86-5.194,5.012a16.993,16.993,0,0,1-10.3,1.152,17.776,17.776,0,0,1-9.16-4.262q-3.543-3.262-3.064-5.949t2.684-2.295a4.657,4.657,0,0,1,2.014,1.07,17.141,17.141,0,0,0,8.224,3.527q5.134.914,5.38-.464t-1.418-3.417a35.855,35.855,0,0,0-3.714-3.9,21.738,21.738,0,0,1-3.641-4.31,6.239,6.239,0,0,1-1.234-4.45q.663-3.721,8.2-6.895T238.153,26.481Z" fill="none" stroke="#fff" stroke-width="11"/>
      </g>
      <g id="Group_70" data-name="Group 70" clip-path="url(#clip-path)">
        <path id="Path_120" data-name="Path 120" d="M1.1-77.335H255.5V-6.093H1.1Z" fill="#2e2e2e"/>
      </g>
    </g>
    <g id="Group_75" data-name="Group 75" transform="translate(0.276 23.105)">
      <g id="Group_71" data-name="Group 71" clip-path="url(#clip-path-3)">
        <path id="Path_122" data-name="Path 122" d="M38.356-147.994h182.8V-84.4H38.356Z"/>
      </g>
      <g id="Group_72" data-name="Group 72" transform="translate(43.356 -142.994)">
        <path id="Path_124" data-name="Path 124" d="M.069,41.448a6.488,6.488,0,0,1,.124-2.685,1.424,1.424,0,0,1,1.318-.9q1.01-.1,2.873,1.688a45.882,45.882,0,0,0,4.178,3.53,6.345,6.345,0,0,0,4.406,1.538q1.6-.157,2.769-4.772T18.03,28.051q1.127-7.179,1.383-9.6a53.99,53.99,0,0,1,.948-6.845q-1.84.6-6.136,1.62a54.358,54.358,0,0,1-5.759,1.161,3.219,3.219,0,0,1-2.457-.674,2.962,2.962,0,0,1-1.117-2.071Q4.646,9.139,9.778,6.6A51.961,51.961,0,0,1,20.161,2.734a59.509,59.509,0,0,1,7.272-1.52q3.9-.382,4.147,2.127.1,1.045-1.656,8.954T27.839,22.626q-2.2,16.322-3.626,21.173Q22,51.4,17.519,53.035a9.2,9.2,0,0,1-2.2.5q-4.946.484-9.907-3.849T.069,41.448ZM62.562,30.19a3.009,3.009,0,0,1,1.381,1.949,17.655,17.655,0,0,1-.608,3.824,45.321,45.321,0,0,0-.847,4.505q-.183,1.589-.3,2.508t-.157,1.447q-.038.528-.166,1.308t-.2,1.24q-.077.461-.215,1.065a3.419,3.419,0,0,1-.329.932q-.19.327-.449.694a1.638,1.638,0,0,1-1.363.644q-.978.06-2.53-1.809a13.515,13.515,0,0,1-2.421-4.621q-6.158,7.109-10.63,7.382-3,.184-6.7-2.922t-3.9-6.424q-.2-3.319,2.426-9.651a42.9,42.9,0,0,1,7.514-11.89q4.885-5.558,9.986-5.87,2.935-.179,6.987,3.01t4.225,6.019A13.7,13.7,0,0,1,62.562,30.19ZM42.9,42.471q2.795-.171,7.208-4.263A16.032,16.032,0,0,0,55.29,28.25q.019-.843,1.128-1.051-.453-3.97-1.571-3.9-2.795.171-6.031,4.015a35.556,35.556,0,0,0-5.186,8.1q-1.949,4.257-1.83,6.213a1.082,1.082,0,0,0,.219.723A1.385,1.385,0,0,0,42.9,42.471Zm49.267-28.7a5.8,5.8,0,0,1,3.537,1.289,3.53,3.53,0,0,1,1.72,2.692q0,2.52-4.144,11.7a125.838,125.838,0,0,1-7.673,14.784q-3.525,5.606-5.485,5.61a6.225,6.225,0,0,1-3.048-1.394,6.8,6.8,0,0,1-2.56-2.8Q72.831,41.6,70.431,30.645T68.026,16.754q-.005-2.94,1.955-2.944a8.219,8.219,0,0,1,4.9,1.881,11.725,11.725,0,0,1,4.706,8.6q.215,2.52.361,6.194a44.951,44.951,0,0,0,.641,6.334,100.1,100.1,0,0,0,4.113-9.562q2.439-6.339,4.217-9.913T92.171,13.77Zm11.935-8.32a5.851,5.851,0,0,1,1.81-3.668,4.478,4.478,0,0,1,3.3-1.78q1.573.07,3.573,3.943t1.924,5.586A3.186,3.186,0,0,1,113.48,12.1a3.632,3.632,0,0,1-2.348.806q-2.028-.09-4.567-2.866T104.106,5.451Zm.66,8.788q2.448.109,4.246,2.992A9.57,9.57,0,0,1,110.7,22.7q-.059,1.329-2.837,9.438t-5.483,15.346a3.379,3.379,0,0,1-3.548,2.575,3.694,3.694,0,0,1-2.641-1.274,4.071,4.071,0,0,1-1.02-3.058,57.124,57.124,0,0,1,2.194-9.152q2.112-7.3,3.287-12.466a60.711,60.711,0,0,1,2.087-7.545Q103.647,14.189,104.766,14.239Zm39.684,15.925q-.261,3.42-5.11,5.788a18.665,18.665,0,0,1-9.735,2,38.145,38.145,0,0,1-7.973-1.31,11.894,11.894,0,0,0-.916,3.721,4.444,4.444,0,0,0,.423,2.735q.567.851,3.08,1.042a35.927,35.927,0,0,0,9.044-.293q3.809-.692,3.948-.682,2.862.218,2.718,2.1-.208,2.722-4.9,4.821a21.525,21.525,0,0,1-10.586,1.649,12.556,12.556,0,0,1-9.175-4.421,12.243,12.243,0,0,1-2.891-9.031,22.4,22.4,0,0,1,3.773-10.348,31.175,31.175,0,0,1,8.139-8.681q4.752-3.393,9.184-3.055t7.868,4.988Q144.781,25.836,144.451,30.164Zm-8.011-1.735q.053-.7-1.311-2.136a4.277,4.277,0,0,0-2.656-1.537q-1.291-.1-3.457,1.6a22.453,22.453,0,0,0-4.2,4.488,17.719,17.719,0,0,0,1.809.208Q136.184,31.779,136.439,28.429Zm13.3.995.375-7.912q.393-3.9,2.831-3.655a4.51,4.51,0,0,1,2.646,1.322,6.416,6.416,0,0,1,1.725,3.48,21.1,21.1,0,0,1,5.529-2.855,12.323,12.323,0,0,1,5.11-.787q5.084.512,4.839,2.95a3.056,3.056,0,0,1-.639,1.8q-.512.546-.784.8a6.135,6.135,0,0,1-.91.647q-.638.393-.937.574-1.707.883-2.446,1.231a21.461,21.461,0,0,0-5.837,4.161,18.686,18.686,0,0,0-4.112,7.289,70.132,70.132,0,0,1-4.86,11.576q-2.173,3.756-4.367,3.535a3.505,3.505,0,0,1-3.063-2.419,8.657,8.657,0,0,1-.683-4.044,18.051,18.051,0,0,1,1.916-5.4,42.731,42.731,0,0,0,2.523-6.183A32.652,32.652,0,0,0,149.737,29.424Z" fill="none" stroke="#fff" stroke-width="11"/>
      </g>
      <g id="Group_73" data-name="Group 73" clip-path="url(#clip-path-3)">
        <path id="Path_125" data-name="Path 125" d="M38.356-147.994h182.8V-84.4H38.356Z" fill="#2e2e2e"/>
      </g>
    </g>
  </g>
</svg>
